<svg width="512" height="512" viewBox="0 0 512 512" fill="none" xmlns="http://www.w3.org/2000/svg">
<rect x="113.212" y="144.318" width="284.198" height="183.123" fill="#4F1A82"/>
<path d="M394.833 359.25C413.854 359.25 429.244 343.687 429.244 324.667L429.417 151.75C429.417 132.729 413.854 117.167 394.833 117.167H118.167C99.1458 117.167 83.5833 132.729 83.5833 151.75V324.667C83.5833 343.687 99.1458 359.25 118.167 359.25H49V393.833H464V359.25H394.833ZM118.167 151.75H394.833V324.667H118.167V151.75Z" fill="black"/>
<path d="M263.04 184.367C263.04 184.367 266.56 196.972 266.56 207.198C266.56 216.997 260.139 224.94 250.34 224.94C240.495 224.94 233.074 216.997 233.074 207.198L233.217 205.486C223.609 216.901 217.854 231.694 217.854 247.771C217.854 268.794 234.882 285.822 255.905 285.822C276.929 285.822 293.957 268.794 293.957 247.771C293.957 222.134 281.638 199.255 263.04 184.367ZM254.526 271.553C246.06 271.553 239.21 264.894 239.21 256.618C239.21 248.912 244.205 243.49 252.576 241.778C260.995 240.065 269.699 236.022 274.551 229.506C276.406 235.642 277.357 242.111 277.357 248.722C277.357 261.327 267.131 271.553 254.526 271.553Z" fill="white"/>
</svg>
