<svg width="512" height="512" viewBox="0 0 512 512" fill="none" xmlns="http://www.w3.org/2000/svg">
<rect x="79.2206" y="118.831" width="350.625" height="225.925" fill="#4F1A82"/>
<path d="M426.667 384C450.133 384 469.12 364.8 469.12 341.333L469.333 128C469.333 104.533 450.133 85.3333 426.667 85.3333H85.3333C61.8667 85.3333 42.6667 104.533 42.6667 128V341.333C42.6667 364.8 61.8667 384 85.3333 384H0V426.667H512V384H426.667ZM85.3333 128H426.667V341.333H85.3333V128Z" fill="#A577BE"/>
<g clip-path="url(#clip0_26_34)">
<path d="M264.069 168.241C264.069 168.241 268.411 183.792 268.411 196.409C268.411 208.497 260.489 218.297 248.401 218.297C236.254 218.297 227.099 208.497 227.099 196.409L227.275 194.296C215.421 208.38 208.321 226.63 208.321 246.464C208.321 272.402 229.329 293.41 255.266 293.41C281.204 293.41 302.212 272.402 302.212 246.464C302.212 214.835 287.013 186.609 264.069 168.241ZM253.565 275.805C243.119 275.805 234.669 267.59 234.669 257.379C234.669 247.873 240.831 241.183 251.159 239.07C261.545 236.958 272.284 231.97 278.27 223.93C280.558 231.5 281.732 239.481 281.732 247.638C281.732 263.189 269.115 275.805 253.565 275.805Z" fill="white"/>
</g>
<defs>
<clipPath id="clip0_26_34">
<rect width="140.837" height="140.837" fill="white" transform="translate(184.848 164.31)"/>
</clipPath>
</defs>
</svg>
