<svg width="512" height="512" viewBox="0 0 512 512" fill="none" xmlns="http://www.w3.org/2000/svg">
<rect width="512" height="512" fill="#4F1A82"/>
<rect width="512" height="512" fill="#581598"/>
<path d="M275.5 117C275.5 117 285.12 151.414 285.12 179.335C285.12 206.087 267.57 227.774 240.79 227.774C213.88 227.774 193.6 206.087 193.6 179.335L193.99 174.66C167.73 205.827 152 246.215 152 290.109C152 347.509 198.54 394 256 394C313.46 394 360 347.509 360 290.109C360 220.112 326.33 157.647 275.5 117ZM252.23 355.041C229.09 355.041 210.37 336.86 210.37 314.263C210.37 293.226 224.02 278.421 246.9 273.746C269.91 269.071 293.7 258.032 306.96 240.241C312.03 256.993 314.63 274.655 314.63 292.706C314.63 327.12 286.68 355.041 252.23 355.041Z" fill="white"/>
</svg>
