<svg width="1245" height="512" viewBox="0 0 1245 512" fill="none" xmlns="http://www.w3.org/2000/svg">
<rect x="113.212" y="144.318" width="284.198" height="183.123" fill="#4F1A82"/>
<path d="M394.833 359.25C413.854 359.25 429.244 343.687 429.244 324.667L429.417 151.75C429.417 132.729 413.854 117.167 394.833 117.167H118.167C99.1458 117.167 83.5833 132.729 83.5833 151.75V324.667C83.5833 343.687 99.1458 359.25 118.167 359.25H49V393.833H464V359.25H394.833ZM118.167 151.75H394.833V324.667H118.167V151.75Z" fill="#A577BE"/>
<g clip-path="url(#clip0_25_25)">
<path d="M263.04 184.367C263.04 184.367 266.56 196.972 266.56 207.198C266.56 216.997 260.139 224.94 250.34 224.94C240.495 224.94 233.074 216.997 233.074 207.198L233.217 205.486C223.609 216.901 217.854 231.694 217.854 247.771C217.854 268.794 234.882 285.822 255.905 285.822C276.929 285.822 293.957 268.794 293.957 247.771C293.957 222.134 281.638 199.255 263.04 184.367ZM254.526 271.553C246.06 271.553 239.21 264.894 239.21 256.618C239.21 248.912 244.205 243.49 252.576 241.778C260.995 240.065 269.699 236.022 274.551 229.506C276.406 235.642 277.357 242.111 277.357 248.722C277.357 261.327 267.131 271.553 254.526 271.553Z" fill="white"/>
</g>
<path d="M579.521 194.943L554.999 269.715C554.865 270.117 554.932 270.519 555.2 270.921C555.468 271.189 555.803 271.323 556.205 271.323H603.44C603.842 271.323 604.11 271.189 604.244 270.921C604.512 270.519 604.646 270.117 604.646 269.715L580.124 194.943C580.124 194.809 580.057 194.742 579.923 194.742C579.655 194.742 579.521 194.809 579.521 194.943ZM527.864 327C525.854 327 524.246 326.196 523.04 324.588C521.834 322.846 521.566 321.037 522.236 319.161L568.064 188.712C569.002 186.166 570.543 184.156 572.687 182.682C574.965 181.074 577.444 180.27 580.124 180.27C582.804 180.27 585.216 181.074 587.36 182.682C589.638 184.156 591.246 186.166 592.184 188.712L637.811 318.96C638.481 320.97 638.213 322.846 637.007 324.588C635.801 326.196 634.193 327 632.183 327C629.503 327 627.091 326.263 624.947 324.789C622.937 323.181 621.53 321.171 620.726 318.759L610.073 285.795C609.671 284.723 608.867 284.187 607.661 284.187H551.984C550.912 284.187 550.175 284.723 549.773 285.795L538.718 319.161C537.914 321.573 536.507 323.516 534.497 324.99C532.621 326.33 530.41 327 527.864 327ZM672.116 324.588C670.642 326.196 668.766 327 666.488 327C664.21 327 662.267 326.196 660.659 324.588C659.185 322.98 658.448 321.104 658.448 318.96V230.118C658.448 227.974 659.185 226.165 660.659 224.691C662.133 223.217 663.942 222.48 666.086 222.48C668.23 222.48 670.039 223.217 671.513 224.691C672.987 226.165 673.724 227.974 673.724 230.118V245.595C673.724 245.729 673.791 245.796 673.925 245.796C674.193 245.796 674.327 245.662 674.327 245.394C678.347 238.694 683.975 233.334 691.211 229.314C698.581 225.16 706.822 222.882 715.934 222.48C717.81 222.346 719.418 222.949 720.758 224.289C722.098 225.629 722.768 227.237 722.768 229.113C722.768 230.855 722.098 232.396 720.758 233.736C719.552 235.076 718.011 235.813 716.135 235.947C702.869 236.483 692.618 240.369 685.382 247.605C678.146 254.707 674.528 264.69 674.528 277.554V318.96C674.528 321.104 673.724 322.98 672.116 324.588ZM783.604 232.53C764.174 232.53 754.459 246.131 754.459 273.333C754.459 286.867 757.005 297.185 762.097 304.287C767.323 311.389 774.492 314.94 783.604 314.94C791.376 314.94 798.143 312.059 803.905 306.297C809.801 300.535 812.749 293.634 812.749 285.594V262.278C812.749 254.238 809.801 247.27 803.905 241.374C798.143 235.478 791.376 232.53 783.604 232.53ZM779.584 327C767.39 327 757.541 322.31 750.037 312.93C742.667 303.416 738.982 290.217 738.982 273.333C738.982 255.511 742.667 242.245 750.037 233.535C757.541 224.825 767.39 220.47 779.584 220.47C793.118 220.47 804.173 226.031 812.749 237.153C812.883 237.287 813.017 237.354 813.151 237.354C813.285 237.354 813.352 237.287 813.352 237.153L813.553 229.716C813.553 227.706 814.223 226.031 815.563 224.691C817.037 223.217 818.779 222.48 820.789 222.48C822.799 222.48 824.474 223.217 825.814 224.691C827.288 226.031 828.025 227.706 828.025 229.716V320.97C828.025 339.06 824.139 352.259 816.367 360.567C808.595 369.009 796.401 373.23 779.785 373.23C771.477 373.23 763.839 372.359 756.871 370.617C752.583 369.545 750.439 366.731 750.439 362.175C750.439 360.567 751.042 359.227 752.248 358.155C753.588 357.217 754.995 357.016 756.469 357.552C763.973 359.964 771.745 361.17 779.785 361.17C791.443 361.17 799.818 358.088 804.91 351.924C810.136 345.76 812.749 335.643 812.749 321.573V311.724C812.749 311.59 812.682 311.523 812.548 311.523C812.414 311.523 812.28 311.59 812.146 311.724C803.972 321.908 793.118 327 779.584 327ZM931.233 274.74C931.233 246.6 920.513 232.53 899.073 232.53C877.633 232.53 866.913 246.6 866.913 274.74C866.913 302.88 877.633 316.95 899.073 316.95C920.513 316.95 931.233 302.88 931.233 274.74ZM934.248 314.739C925.806 324.253 914.081 329.01 899.073 329.01C884.065 329.01 872.34 324.253 863.898 314.739C855.456 305.225 851.235 291.892 851.235 274.74C851.235 257.588 855.456 244.255 863.898 234.741C872.34 225.227 884.065 220.47 899.073 220.47C914.081 220.47 925.806 225.227 934.248 234.741C942.69 244.255 946.911 257.588 946.911 274.74C946.911 291.892 942.69 305.225 934.248 314.739ZM983.024 324.789C981.55 326.263 979.741 327 977.597 327C975.453 327 973.644 326.263 972.17 324.789C970.696 323.315 969.959 321.506 969.959 319.362V229.716C969.959 227.706 970.629 226.031 971.969 224.691C973.443 223.217 975.185 222.48 977.195 222.48C979.205 222.48 980.947 223.217 982.421 224.691C983.895 226.031 984.632 227.706 984.632 229.716V237.957C984.632 238.091 984.699 238.158 984.833 238.158C984.967 238.158 985.101 238.091 985.235 237.957C994.883 226.299 1006.34 220.47 1019.61 220.47C1031.8 220.47 1040.64 223.887 1046.14 230.721C1051.63 237.555 1054.38 248.878 1054.38 264.69V319.362C1054.38 321.506 1053.64 323.315 1052.17 324.789C1050.83 326.263 1049.09 327 1046.94 327C1044.8 327 1042.99 326.263 1041.51 324.789C1040.04 323.315 1039.3 321.506 1039.3 319.362V266.7C1039.3 253.434 1037.49 244.456 1033.88 239.766C1030.26 234.942 1024.16 232.53 1015.59 232.53C1008.62 232.53 1001.85 235.813 995.285 242.379C988.719 248.811 985.436 255.444 985.436 262.278V319.362C985.436 321.506 984.632 323.315 983.024 324.789Z" fill="#A577BE"/>
<defs>
<clipPath id="clip0_25_25">
<rect width="114.155" height="114.155" fill="white" transform="translate(198.828 181.181)"/>
</clipPath>
</defs>
</svg>
