<svg width="1245" height="512" viewBox="0 0 1245 512" fill="none" xmlns="http://www.w3.org/2000/svg">
<path d="M76 96C76 84.9543 84.9543 76 96 76H416C427.046 76 436 84.9543 436 96V436H76V96Z" fill="#107C10"/>
<rect x="76" y="132" width="360" height="304" fill="#00B294"/>
<path d="M161.19 323V196.37H125.01V182.3H217.47V196.37H181.29V323H161.19ZM237.664 182.3H257.764L299.974 267.725C301.046 269.467 301.917 271.544 302.587 273.956C303.123 275.966 303.458 277.239 303.592 277.775H304.396C304.53 277.239 304.865 275.966 305.401 273.956C306.071 271.544 306.942 269.467 308.014 267.725L350.224 182.3H370.324V323H350.224V234.56C350.224 232.416 350.358 228.798 350.626 223.706L351.028 217.475H350.224L348.415 223.706C348.013 224.778 347.41 226.52 346.606 228.932C345.802 231.21 344.998 233.086 344.194 234.56L312.034 297.875H295.954L263.794 234.56C262.99 233.086 262.186 231.21 261.382 228.932C260.578 226.52 259.975 224.778 259.573 223.706L257.764 217.475H256.96L257.362 223.706C257.63 228.798 257.764 232.416 257.764 234.56V323H237.664V182.3Z" fill="#272727"/>
<path d="M161.19 323V196.37H125.01V182.3H217.47V196.37H181.29V323H161.19ZM237.664 182.3H257.764L299.974 267.725C301.046 269.467 301.917 271.544 302.587 273.956C303.123 275.966 303.458 277.239 303.592 277.775H304.396C304.53 277.239 304.865 275.966 305.401 273.956C306.071 271.544 306.942 269.467 308.014 267.725L350.224 182.3H370.324V323H350.224V234.56C350.224 232.416 350.358 228.798 350.626 223.706L351.028 217.475H350.224L348.415 223.706C348.013 224.778 347.41 226.52 346.606 228.932C345.802 231.21 344.998 233.086 344.194 234.56L312.034 297.875H295.954L263.794 234.56C262.99 233.086 262.186 231.21 261.382 228.932C260.578 226.52 259.975 224.778 259.573 223.706L257.764 217.475H256.96L257.362 223.706C257.63 228.798 257.764 232.416 257.764 234.56V323H237.664V182.3Z" fill="#272727"/>
<path d="M446.71 212.7H458.61L483.6 263.275C484.235 264.306 484.75 265.536 485.147 266.964C485.464 268.154 485.663 268.908 485.742 269.225H486.218C486.297 268.908 486.496 268.154 486.813 266.964C487.21 265.536 487.725 264.306 488.36 263.275L513.35 212.7H525.25V296H513.35V243.64C513.35 242.371 513.429 240.229 513.588 237.214L513.826 233.525H513.35L512.279 237.214C512.041 237.849 511.684 238.88 511.208 240.308C510.732 241.657 510.256 242.767 509.78 243.64L490.74 281.125H481.22L462.18 243.64C461.704 242.767 461.228 241.657 460.752 240.308C460.276 238.88 459.919 237.849 459.681 237.214L458.61 233.525H458.134L458.372 237.214C458.531 240.229 458.61 242.371 458.61 243.64V296H446.71V212.7ZM567.476 297.19C559.464 297.19 553.196 294.572 548.674 289.336C544.152 284.1 541.891 276.405 541.891 266.25C541.891 256.095 544.152 248.4 548.674 243.164C553.196 237.928 559.464 235.31 567.476 235.31C575.41 235.31 581.637 237.928 586.159 243.164C590.761 248.4 593.061 256.095 593.061 266.25C593.061 276.405 590.761 284.1 586.159 289.336C581.637 294.572 575.41 297.19 567.476 297.19ZM567.476 288.86C571.602 288.86 574.894 287.075 577.353 283.505C579.892 279.856 581.161 274.104 581.161 266.25C581.161 258.396 579.892 252.684 577.353 249.114C574.894 245.465 571.602 243.64 567.476 243.64C563.351 243.64 560.019 245.465 557.48 249.114C555.021 252.684 553.791 258.396 553.791 266.25C553.791 274.104 555.021 279.856 557.48 283.505C560.019 287.075 563.351 288.86 567.476 288.86ZM626.414 297.19C622.527 297.19 618.957 296.04 615.704 293.739C612.451 291.359 609.833 287.868 607.85 283.267C605.946 278.586 604.994 272.914 604.994 266.25C604.994 256.175 607.176 248.519 611.539 243.283C615.902 237.968 621.654 235.31 628.794 235.31C631.491 235.31 634.546 235.905 637.957 237.095L641.884 238.88V216.27L645.454 212.7H653.784V296H645.454L644.264 288.86H643.669C642.558 290.447 641.17 291.835 639.504 293.025C636.013 295.802 631.65 297.19 626.414 297.19ZM629.389 288.265C632.324 288.265 635.299 287.075 638.314 284.695C639.663 283.584 640.853 282.394 641.884 281.125V246.02C641.17 245.623 640.099 245.227 638.671 244.83C635.974 244.037 633.276 243.64 630.579 243.64C626.454 243.64 623.122 245.465 620.583 249.114C618.124 252.684 616.894 258.396 616.894 266.25C616.894 273.787 618.044 279.34 620.345 282.91C622.725 286.48 625.74 288.265 629.389 288.265ZM707.952 296V212.7H719.852V296H707.952ZM739.52 236.5H747.85L749.04 243.64H749.635C750.507 242.371 751.896 240.982 753.8 239.475C757.687 236.698 762.05 235.31 766.89 235.31C772.84 235.31 777.679 237.214 781.408 241.022C785.216 244.751 787.12 249.59 787.12 255.54V296H775.22V255.54C775.22 252.208 774.149 249.511 772.007 247.448C769.944 245.306 767.247 244.235 763.915 244.235C760.979 244.235 758.004 245.425 754.99 247.805C753.72 248.916 752.53 250.106 751.42 251.375V296H739.52V236.5ZM821.62 297.19C815.115 297.19 809.641 296.119 805.198 293.977C802.898 292.946 801.033 291.835 799.605 290.645L803.77 283.505H804.96C805.833 284.298 807.221 285.211 809.125 286.242C812.775 287.987 816.543 288.86 820.43 288.86C825.19 288.86 828.641 288.106 830.783 286.599C833.005 285.092 834.115 283.069 834.115 280.53C834.115 277.912 832.965 275.929 830.664 274.58C828.443 273.231 824.952 271.764 820.192 270.177C815.988 268.749 812.616 267.44 810.077 266.25C807.539 265.06 805.357 263.354 803.532 261.133C801.708 258.912 800.795 256.056 800.795 252.565C800.795 247.25 802.66 243.045 806.388 239.951C810.196 236.857 815.869 235.31 823.405 235.31C829.038 235.31 834.155 236.421 838.756 238.642C840.978 239.673 842.802 240.744 844.23 241.855L840.065 248.995H838.875C837.685 248.122 836.337 247.25 834.829 246.377C831.339 244.552 827.927 243.64 824.595 243.64C820.629 243.64 817.654 244.394 815.67 245.901C813.687 247.329 812.695 249.154 812.695 251.375C812.695 253.993 813.806 255.976 816.027 257.325C818.328 258.674 821.858 260.141 826.618 261.728C830.823 263.156 834.195 264.465 836.733 265.655C839.272 266.845 841.454 268.551 843.278 270.772C845.103 272.993 846.015 275.849 846.015 279.34C846.015 284.973 844.032 289.376 840.065 292.549C836.099 295.643 829.95 297.19 821.62 297.19ZM881.116 297.19C875.166 297.19 870.406 295.445 866.836 291.954C863.266 288.463 861.481 283.862 861.481 278.15V244.83H852.556V237.69L868.026 222.22H873.381V236.5H888.256V244.83H873.381V278.15C873.381 281.641 874.174 284.298 875.761 286.123C877.347 287.948 879.529 288.86 882.306 288.86C884.686 288.86 887.026 288.067 889.327 286.48C890.358 285.766 891.389 284.973 892.421 284.1H893.611L897.776 291.24C896.03 292.589 894.444 293.58 893.016 294.215C889.208 296.198 885.241 297.19 881.116 297.19ZM922.812 297.19C916.624 297.19 911.785 295.564 908.294 292.311C904.883 288.979 903.177 284.457 903.177 278.745C903.177 273.112 905.2 268.749 909.246 265.655C913.372 262.482 919.877 260.895 928.762 260.895H938.282V257.92C938.282 253.239 937.172 249.709 934.95 247.329C932.808 244.87 929.754 243.64 925.787 243.64C922.931 243.64 919.837 244.552 916.505 246.377C914.839 247.329 913.57 248.202 912.697 248.995H911.507L907.342 241.855C908.929 240.665 910.714 239.594 912.697 238.642C916.981 236.421 921.741 235.31 926.977 235.31C931.499 235.31 935.506 236.302 938.996 238.285C942.487 240.189 945.224 242.886 947.207 246.377C949.191 249.788 950.182 253.636 950.182 257.92V296H941.852L940.662 288.86H940.067C938.957 290.447 937.568 291.835 935.902 293.025C932.412 295.802 928.048 297.19 922.812 297.19ZM925.787 288.265C928.723 288.265 931.698 287.075 934.712 284.695C936.061 283.584 937.251 282.394 938.282 281.125V269.225H928.762C924.24 269.225 920.829 270.098 918.528 271.843C916.228 273.588 915.077 275.889 915.077 278.745C915.077 281.839 915.95 284.219 917.695 285.885C919.52 287.472 922.217 288.265 925.787 288.265ZM967.409 296V216.27L970.979 212.7H979.309V296H967.409ZM997.159 296V216.27L1000.73 212.7H1009.06V296H997.159ZM1050.11 297.19C1041.86 297.19 1035.44 294.572 1030.84 289.336C1026.24 284.1 1023.93 276.405 1023.93 266.25C1023.93 256.175 1026.16 248.519 1030.6 243.283C1035.04 237.968 1040.95 235.31 1048.33 235.31C1055.71 235.31 1061.62 237.968 1066.06 243.283C1070.5 248.519 1072.72 256.175 1072.72 266.25V268.035L1070.34 270.415H1035.83C1035.83 276.524 1037.18 281.125 1039.88 284.219C1042.58 287.313 1046.39 288.86 1051.3 288.86C1054.24 288.86 1057.29 287.987 1060.47 286.242C1062.13 285.29 1063.44 284.378 1064.39 283.505H1065.58L1069.75 290.645C1068.32 291.835 1066.54 292.946 1064.39 293.977C1060.27 296.119 1055.51 297.19 1050.11 297.19ZM1060.82 262.085C1060.82 255.818 1059.67 251.177 1057.37 248.162C1055.15 245.147 1052.14 243.64 1048.33 243.64C1044.52 243.64 1041.47 245.147 1039.17 248.162C1036.95 251.177 1035.83 255.818 1035.83 262.085H1060.82ZM1086.99 236.5H1095.32L1096.51 243.64H1097.11C1097.9 242.45 1099.25 241.062 1101.15 239.475C1104.88 236.698 1109.08 235.31 1113.77 235.31C1115.83 235.31 1117.65 235.508 1119.24 235.905L1121.5 236.5L1119.72 246.02H1118.53C1117.97 245.941 1117.14 245.742 1116.03 245.425C1114.28 245.028 1112.54 244.83 1110.79 244.83C1108.17 244.83 1105.36 246.02 1102.34 248.4C1101.31 249.273 1100.16 250.463 1098.89 251.97V296H1086.99V236.5Z" fill="#272727"/>
</svg>
